<svg width="10" height="10" viewBox="0 0 10 10" fill="none" xmlns="http://www.w3.org/2000/svg">
  <path fill-rule="evenodd" clip-rule="evenodd" d="M9.32956 2.49021C8.88247 1.7242 8.27596 1.11769 7.50995 0.670598C6.74378 0.223506 5.90737 0 5.00016 0C4.09303 0 3.25638 0.223506 2.49037 0.670598C1.72428 1.11761 1.11777 1.72412 0.670678 2.49021C0.223506 3.2563 0 4.09295 0 5C0 5.90713 0.223586 6.74362 0.670598 7.50979C1.11769 8.27572 1.7242 8.88231 2.49029 9.3294C3.25638 9.77649 4.09295 10 5.00008 10C5.90721 10 6.74386 9.77649 7.50987 9.3294C8.27588 8.88239 8.88239 8.2758 9.32948 7.50979C9.77649 6.7437 10 5.90705 10 5C10 4.09287 9.77649 3.25622 9.32956 2.49021ZM4.16679 1.24994C4.16679 1.18913 4.18628 1.13927 4.22536 1.10019C4.26444 1.06119 4.31438 1.04162 4.37511 1.04162H5.62521C5.68594 1.04162 5.73588 1.06119 5.7748 1.10019C5.8138 1.13927 5.83345 1.18913 5.83345 1.24994V2.29164C5.83345 2.35237 5.8138 2.40231 5.7748 2.44131C5.73588 2.48038 5.68594 2.49988 5.62521 2.49988H4.37511C4.31438 2.49988 4.26444 2.48038 4.22536 2.44131C4.18628 2.40231 4.16679 2.35237 4.16679 2.29164V1.24994ZM6.66675 8.12501C6.66675 8.18574 6.64709 8.23568 6.60817 8.2746C6.56926 8.31368 6.51931 8.33317 6.45842 8.33317H3.54174C3.48093 8.33317 3.43106 8.31368 3.39199 8.2746C3.35291 8.2356 3.33341 8.18566 3.33341 8.12493V7.08323C3.33341 7.02234 3.35291 6.97256 3.39199 6.93348C3.43106 6.89449 3.48101 6.87491 3.54174 6.87491H4.16679V4.7916H3.54174C3.48093 4.7916 3.43106 4.7721 3.39199 4.73302C3.35291 4.69403 3.33341 4.64408 3.33341 4.58327V3.54166C3.33341 3.48085 3.35291 3.43098 3.39199 3.39191C3.43106 3.35283 3.48101 3.33333 3.54174 3.33333H5.62521C5.68594 3.33333 5.73588 3.35283 5.7748 3.39191C5.8138 3.43098 5.83345 3.48085 5.83345 3.54166V6.87499H6.45834C6.51915 6.87499 6.5691 6.89457 6.60809 6.93356C6.64701 6.97256 6.66667 7.0225 6.66667 7.08331V8.12501H6.66675Z" fill="#8E939F"/>
</svg>